# xmcd
#
# Track frame offsets:
#  150
#  9176
#  21672
#  32193
#  44115
#  54935
#  67924
#  82394
#  96279
#  109358
#  122599
#  137452
#
# Disc length: 2013 seconds
#
# Revision: 0
# Processed by: cddbd v1.5.2PL0 Copyright (c) Steve Scherf et al.
# Submitted via: AltoMP3_Maker 3.0
#
DISCID=a507db0c
DTITLE=The Anita Kerr Singers - Sounds
DYEAR=1900
DGENRE=
TTITLE0=Happiness
TTITLE1=Wine in the Wind
TTITLE2=Today Is
TTITLE3=Say You Do
TTITLE4=I'm Falling in Love Again
TTITLE5=Long Live Our Love
TTITLE6=I Would Love You
TTITLE7=The Beat Goes On
TTITLE8=The Two of Us
TTITLE9=I've Got Love Going for Me
TTITLE10=They Always Ask Me
TTITLE11=Swinging on a Star
EXTD=
EXTT0=
EXTT1=
EXTT2=
EXTT3=
EXTT4=
EXTT5=
EXTT6=
EXTT7=
EXTT8=
EXTT9=
EXTT10=
EXTT11=
PLAYORDER=
